<svg width="21" height="21" viewBox="0 0 21 21" fill="none" xmlns="http://www.w3.org/2000/svg">
<path d="M6.125 12.25C5.44433 10.9279 5.25016 10.7167 5.25016 9.0926C5.24475 8.36023 5.37654 7.63398 5.63795 6.95572C5.89935 6.27745 6.28519 5.66059 6.77322 5.14069C7.26125 4.6208 7.84181 4.20816 8.48144 3.92657C9.12107 3.64498 9.80711 3.5 10.5 3.5C11.1929 3.5 11.8789 3.64498 12.5186 3.92657C13.1582 4.20816 13.7388 4.6208 14.2268 5.14069C14.7148 5.66059 15.1007 6.27745 15.3621 6.95572C15.6235 7.63398 15.7553 8.36023 15.7498 9.0926C15.7498 10.7178 15.5493 11.0376 14.875 12.25" stroke="#333333" stroke-width="2" stroke-miterlimit="10" stroke-linecap="round"/>
<path d="M6.125 12.25L10.5671 17.5L14.875 12.25" stroke="#333333" stroke-width="2" stroke-miterlimit="10" stroke-linecap="round"/>
<path d="M10.5 9.625C10.9832 9.625 11.375 9.23325 11.375 8.75C11.375 8.26675 10.9832 7.875 10.5 7.875C10.0168 7.875 9.625 8.26675 9.625 8.75C9.625 9.23325 10.0168 9.625 10.5 9.625Z" stroke="#333333" stroke-width="2" stroke-miterlimit="10" stroke-linecap="round"/>
</svg>
