<svg width="127" height="41" viewBox="0 0 127 41" fill="none" xmlns="http://www.w3.org/2000/svg">
<g clip-path="url(#clip0_15_510)">
<path d="M54.8714 7.49288V37.4572H46.9857V11.55H49.8071L41.9214 7.60002V3.54288H46.9857L54.8714 7.49288Z" fill="#62BB46"/>
<path d="M33.9143 11.55H7.89286L0 7.6643V3.54288H26.0214L33.9143 7.49288V11.55Z" fill="#62BB46"/>
<path d="M7.9 11.55V16.5H26.0214L33.9143 20.4428V24.5H8.01429L0 20.5571V11.55H7.9Z" fill="#62BB46"/>
<path d="M33.9143 33.4V37.4571H7.89286L0 33.5143V24.5H8.01429V29.45H26.0214L33.9143 33.4Z" fill="#62BB46"/>
<path d="M64.4429 4.04288H67.4786V13.45H69.8V4.04288H72.8214V13.45H75.1572V4.04288H78.1786V16.3286H64.4429V4.04288Z" fill="#333333"/>
<path d="M79.8999 4.04288H82.9356V8.85001H83.6928L85.7142 4.04288H89.2213L86.3285 10.1857L89.3285 16.3286H85.8213L83.7142 11.5357H82.9428V16.3286H79.907V4.04288H79.8999Z" fill="#333333"/>
<path d="M93.0714 4.04288H96.1285L100.029 16.3286H96.8714L96.3642 14.4857H92.8571L92.35 16.3286H89.1714L93.0714 4.04288ZM95.7214 11.9929L95.1428 9.88572C94.9285 9.07858 94.7357 8.22143 94.6 7.23573C94.4571 8.22143 94.2857 9.07858 94.0714 9.88572L93.4785 11.9929H95.7214Z" fill="#333333"/>
<path d="M104.693 15.5C101.793 15.2714 99.707 13.2714 99.707 10.1786C99.707 7.21429 101.793 5.08572 104.693 4.86429V3.35715H107.586V4.86429C110.464 5.12858 112.514 7.23572 112.514 10.1786C112.514 13.1286 110.457 15.2357 107.586 15.5V17.0071H104.693V15.5ZM104.764 7.5C103.357 7.65715 102.8 8.69286 102.8 10.1857C102.8 11.6786 103.414 12.7143 104.764 12.8714V7.5ZM109.428 10.1857C109.428 8.69286 108.864 7.67858 107.536 7.5V12.8714C108.871 12.6929 109.428 11.6714 109.428 10.1857Z" fill="#333333"/>
<path d="M113.614 4.04288H116.65V8.15001H118.021C120.371 8.15001 122.25 9.46429 122.25 12.2429C122.25 15.0214 120.371 16.3357 118.021 16.3357H113.614V4.04288ZM117.779 13.5714C118.657 13.5714 119.221 13.1143 119.221 12.2357C119.221 11.3786 118.643 10.9 117.779 10.9H116.657V13.5714H117.779ZM126.429 16.3286H123.393V4.04288H126.429V16.3286Z" fill="#333333"/>
<path d="M64.4429 25.1143H67.4786V29.9214H68.2357L70.2572 25.1143H73.7643L70.8714 31.2571L73.8714 37.4H70.3643L68.2572 32.6071H67.4857V37.4H64.45V25.1143H64.4429Z" fill="#333333"/>
<path d="M83.9145 25.1143L80.6002 34.3786C79.636 37.0286 78.2645 37.6429 76.8645 37.6429C76.1788 37.6429 75.7788 37.5714 75.2145 37.4V34.7143C75.7217 34.8357 76.1645 34.8571 76.5288 34.7857C77.0217 34.7357 77.3217 34.4357 77.6145 33.9429L73.7217 25.1143H76.936L79.0574 30.6286L80.6931 25.1143H83.9145Z" fill="#333333"/>
<path d="M84.7498 25.1143H93.7498V37.4H90.7284V27.9929H87.7784V37.4H84.7427V25.1143H84.7498Z" fill="#333333"/>
<path d="M95.4927 25.1143H102.743V27.8143H98.5284V29.9H102.336V32.5357H98.5284V34.6571H102.85V37.3929H95.4927V25.1143Z" fill="#333333"/>
</g>
<defs>
<clipPath id="clip0_15_510">
<rect width="126.429" height="40" fill="white" transform="translate(0 0.5)"/>
</clipPath>
</defs>
</svg>
