<svg width="21" height="21" viewBox="0 0 21 21" fill="none" xmlns="http://www.w3.org/2000/svg">
<path d="M13.125 18.375H3.95384C3.60147 18.375 3.26352 18.2393 3.01432 17.9977C2.76512 17.7562 2.62509 17.4286 2.625 17.0869V3.91309C2.62509 3.57144 2.76512 3.24381 3.01432 3.00225C3.26352 2.7607 3.60147 2.625 3.95384 2.625H11.7965C12.1488 2.625 12.4867 2.76071 12.7359 3.00227C12.985 3.24384 13.125 3.57147 13.125 3.91309V18.375V18.375Z" stroke="#333333" stroke-width="2" stroke-miterlimit="10"/>
<path d="M17.3345 18.375H13.125V11.5803C13.125 11.2938 13.2348 11.019 13.4301 10.8164C13.6255 10.6138 13.8904 10.5 14.1667 10.5H17.3333C17.6096 10.5 17.8745 10.6138 18.0699 10.8164C18.2652 11.019 18.375 11.2938 18.375 11.5803V17.2934C18.3752 17.4353 18.3484 17.5758 18.2962 17.7069C18.244 17.8381 18.1674 17.9573 18.0707 18.0577C17.9741 18.1581 17.8594 18.2378 17.7331 18.2923C17.6067 18.3467 17.4713 18.3748 17.3345 18.375V18.375Z" stroke="#333333" stroke-width="2" stroke-miterlimit="10"/>
<path d="M6.125 7L6.125 7.875" stroke="#333333" stroke-width="2" stroke-miterlimit="10" stroke-linecap="round"/>
<path d="M6.125 10.5L6.125 11.375" stroke="#333333" stroke-width="2" stroke-miterlimit="10" stroke-linecap="round"/>
<path d="M6.125 14L6.125 14.875" stroke="#333333" stroke-width="2" stroke-miterlimit="10" stroke-linecap="round"/>
<path d="M9.625 7L9.625 7.875" stroke="#333333" stroke-width="2" stroke-miterlimit="10" stroke-linecap="round"/>
<path d="M9.625 10.5L9.625 11.375" stroke="#333333" stroke-width="2" stroke-miterlimit="10" stroke-linecap="round"/>
<path d="M9.625 14L9.625 14.875" stroke="#333333" stroke-width="2" stroke-miterlimit="10" stroke-linecap="round"/>
<path d="M15.75 14L15.75 14.875" stroke="#333333" stroke-width="2" stroke-miterlimit="10" stroke-linecap="round"/>
</svg>
