<svg width="21" height="21" viewBox="0 0 21 21" fill="none" xmlns="http://www.w3.org/2000/svg">
<path d="M13.7882 12.3009L13.6998 12.3893C13.5942 12.4949 13.4689 12.5786 13.3311 12.6357C13.1932 12.6928 13.0454 12.7222 12.8961 12.7222C12.7469 12.7222 12.5991 12.6928 12.4612 12.6357C12.3233 12.5786 12.198 12.4949 12.0924 12.3893L8.69905 8.99594C8.58189 8.87881 8.48894 8.73974 8.42553 8.58668C8.36211 8.43362 8.32948 8.26957 8.32948 8.10389C8.32948 7.93822 8.36211 7.77416 8.42553 7.6211C8.48894 7.46804 8.58189 7.32898 8.69905 7.21184V7.21184C8.8046 7.10631 8.88832 6.98102 8.94544 6.84313C9.00256 6.70523 9.03197 6.55744 9.03197 6.40818C9.03197 6.25893 9.00256 6.11113 8.94544 5.97324C8.88832 5.83534 8.8046 5.71005 8.69905 5.60452L6.92745 3.83291C6.82191 3.72737 6.69662 3.64364 6.55873 3.58652C6.42084 3.5294 6.27304 3.5 6.12378 3.5C5.97453 3.5 5.82673 3.5294 5.68884 3.58652C5.55095 3.64364 5.42566 3.72737 5.32012 3.83291L4.47046 4.68257C3.84908 5.30398 3.5 6.14677 3.5 7.02555C3.5 7.90433 3.84908 8.74712 4.47046 9.36853L5.50642 10.4045L10.5955 15.4936L11.6315 16.5295C12.2529 17.1509 13.0957 17.5 13.9744 17.5C14.8532 17.5 15.696 17.1509 16.3174 16.5295L17.1671 15.6799C17.2726 15.5743 17.3564 15.4491 17.4135 15.3112C17.4706 15.1733 17.5 15.0255 17.5 14.8762C17.5 14.727 17.4706 14.5792 17.4135 14.4413C17.3564 14.3034 17.2726 14.1781 17.1671 14.0726L15.3955 12.3009C15.2899 12.1954 15.1647 12.1117 15.0268 12.0546C14.8889 11.9974 14.7411 11.968 14.5918 11.968C14.4426 11.968 14.2948 11.9974 14.1569 12.0546C14.019 12.1117 13.8937 12.1954 13.7882 12.3009V12.3009Z" stroke="#333333" stroke-width="2" stroke-linecap="round" stroke-linejoin="round"/>
</svg>
