<svg width="16" height="17" viewBox="0 0 16 17" fill="none" xmlns="http://www.w3.org/2000/svg">
<path fill-rule="evenodd" clip-rule="evenodd" d="M2.6665 3.83335C2.6665 3.46516 2.96498 3.16669 3.33317 3.16669H7.33317C7.70136 3.16669 7.99984 3.46516 7.99984 3.83335C7.99984 4.20154 7.70136 4.50002 7.33317 4.50002H3.99984V7.83335C3.99984 8.20154 3.70136 8.50002 3.33317 8.50002C2.96498 8.50002 2.6665 8.20154 2.6665 7.83335V3.83335Z" fill="#333333"/>
<path fill-rule="evenodd" clip-rule="evenodd" d="M12.6667 8.5C13.0349 8.5 13.3333 8.79848 13.3333 9.16667V13.1667C13.3333 13.5349 13.0349 13.8333 12.6667 13.8333H8.66667C8.29848 13.8333 8 13.5349 8 13.1667C8 12.7985 8.29848 12.5 8.66667 12.5H12V9.16667C12 8.79848 12.2985 8.5 12.6667 8.5Z" fill="#333333"/>
<path fill-rule="evenodd" clip-rule="evenodd" d="M2.86177 3.36195C3.12212 3.1016 3.54423 3.1016 3.80458 3.36195L13.1379 12.6953C13.3983 12.9556 13.3983 13.3777 13.1379 13.6381C12.8776 13.8984 12.4554 13.8984 12.1951 13.6381L2.86177 4.30476C2.60142 4.04441 2.60142 3.6223 2.86177 3.36195Z" fill="#333333"/>
</svg>
