<svg width="16" height="17" viewBox="0 0 16 17" fill="none" xmlns="http://www.w3.org/2000/svg">
<path fill-rule="evenodd" clip-rule="evenodd" d="M11.5288 5.36195C11.7891 5.1016 12.2112 5.1016 12.4716 5.36195L15.1382 8.02862C15.3986 8.28897 15.3986 8.71108 15.1382 8.97142L12.4716 11.6381C12.2112 11.8984 11.7891 11.8984 11.5288 11.6381C11.2684 11.3777 11.2684 10.9556 11.5288 10.6953L13.724 8.50002L11.5288 6.30476C11.2684 6.04441 11.2684 5.6223 11.5288 5.36195Z" fill="#333333"/>
<path fill-rule="evenodd" clip-rule="evenodd" d="M4.47124 5.36195C4.73159 5.6223 4.73159 6.04441 4.47124 6.30476L2.27598 8.50002L4.47124 10.6953C4.73159 10.9556 4.73159 11.3777 4.47124 11.6381C4.21089 11.8984 3.78878 11.8984 3.52843 11.6381L0.861766 8.97142C0.601417 8.71108 0.601417 8.28897 0.861766 8.02862L3.52843 5.36195C3.78878 5.1016 4.21089 5.1016 4.47124 5.36195Z" fill="#333333"/>
<path fill-rule="evenodd" clip-rule="evenodd" d="M0.666504 8.49998C0.666504 8.13179 0.964981 7.83331 1.33317 7.83331H14.6665C15.0347 7.83331 15.3332 8.13179 15.3332 8.49998C15.3332 8.86817 15.0347 9.16665 14.6665 9.16665H1.33317C0.964981 9.16665 0.666504 8.86817 0.666504 8.49998Z" fill="#333333"/>
</svg>
