<svg width="16" height="17" viewBox="0 0 16 17" fill="none" xmlns="http://www.w3.org/2000/svg">
<path fill-rule="evenodd" clip-rule="evenodd" d="M4.86177 12.0286C5.12212 11.7682 5.54423 11.7682 5.80458 12.0286L7.99984 14.2238L10.1951 12.0286C10.4554 11.7682 10.8776 11.7682 11.1379 12.0286C11.3983 12.2889 11.3983 12.711 11.1379 12.9714L8.47124 15.6381C8.21089 15.8984 7.78878 15.8984 7.52843 15.6381L4.86177 12.9714C4.60142 12.711 4.60142 12.2889 4.86177 12.0286Z" fill="#333333"/>
<path fill-rule="evenodd" clip-rule="evenodd" d="M7.52843 1.36195C7.78878 1.1016 8.21089 1.1016 8.47124 1.36195L11.1379 4.02862C11.3983 4.28897 11.3983 4.71108 11.1379 4.97142C10.8776 5.23177 10.4554 5.23177 10.1951 4.97142L7.99984 2.77616L5.80458 4.97142C5.54423 5.23177 5.12212 5.23177 4.86177 4.97142C4.60142 4.71108 4.60142 4.28897 4.86177 4.02862L7.52843 1.36195Z" fill="#333333"/>
<path fill-rule="evenodd" clip-rule="evenodd" d="M8.00016 1.16669C8.36835 1.16669 8.66683 1.46516 8.66683 1.83335V15.1667C8.66683 15.5349 8.36835 15.8334 8.00016 15.8334C7.63197 15.8334 7.3335 15.5349 7.3335 15.1667V1.83335C7.3335 1.46516 7.63197 1.16669 8.00016 1.16669Z" fill="#333333"/>
</svg>
