<svg width="24" height="24" viewBox="0 0 24 24" fill="none" xmlns="http://www.w3.org/2000/svg">
<path fill-rule="evenodd" clip-rule="evenodd" d="M22.7071 13.2929C23.0976 13.6834 23.0976 14.3166 22.7071 14.7071L18.7071 18.7071C18.3166 19.0976 17.6834 19.0976 17.2929 18.7071L15.2929 16.7071C14.9024 16.3166 14.9024 15.6834 15.2929 15.2929C15.6834 14.9024 16.3166 14.9024 16.7071 15.2929L18 16.5858L21.2929 13.2929C21.6834 12.9024 22.3166 12.9024 22.7071 13.2929Z" fill="#62BB46"/>
<path fill-rule="evenodd" clip-rule="evenodd" d="M10.5021 1.40276C10.9577 1.14026 11.4742 1.00208 12 1.00208C12.5258 1.00208 13.0424 1.14027 13.4979 1.4028C13.4986 1.4032 13.4993 1.4036 13.5 1.404L20.5 5.40399C20.9556 5.66704 21.334 6.04527 21.5973 6.50074C21.8606 6.95621 21.9995 7.47291 22 7.999V10C22 10.5523 21.5523 11 21 11C20.4477 11 20 10.5523 20 10V8.00105C19.9998 7.82569 19.9535 7.65345 19.8658 7.50163C19.7783 7.35034 19.6527 7.22461 19.5016 7.13697C19.5011 7.13666 19.5005 7.13636 19.5 7.13605L12.5 3.13606C12.348 3.04829 12.1755 3.00208 12 3.00208C11.8245 3.00208 11.652 3.04828 11.5 3.13605L11.4961 3.13828L4.5 7.13605C4.49947 7.13635 4.49895 7.13666 4.49842 7.13696C4.34726 7.2246 4.22169 7.35033 4.13423 7.50163C4.04654 7.65333 4.00025 7.8254 4 8.00062V15.9994C4.00025 16.1746 4.04654 16.3467 4.13423 16.4984C4.22169 16.6497 4.34726 16.7754 4.49842 16.8631C4.49895 16.8634 4.49947 16.8637 4.5 16.864L11.5 20.864C11.652 20.9518 11.8245 20.998 12 20.998C12.1755 20.998 12.348 20.9518 12.5 20.864L12.5048 20.8612L14.5048 19.7212C14.9846 19.4478 15.5953 19.615 15.8688 20.0948C16.1423 20.5746 15.975 21.1853 15.4952 21.4588L13.5 22.5961C13.4991 22.5966 13.4982 22.5971 13.4973 22.5976C13.0419 22.8599 12.5256 22.998 12 22.998C11.4741 22.998 10.9575 22.8597 10.5019 22.5971C10.5012 22.5968 10.5006 22.5964 10.5 22.5961L3.50386 18.5983L3.5 18.5961C3.04439 18.333 2.66597 17.9548 2.40269 17.4993C2.13941 17.0438 2.00054 16.5271 2 16.0011V7.999C2.00054 7.47291 2.13941 6.95621 2.40269 6.50074C2.66597 6.04527 3.04439 5.66704 3.5 5.404L3.50386 5.40177L10.5021 1.40276Z" fill="#62BB46"/>
<path fill-rule="evenodd" clip-rule="evenodd" d="M6.68364 3.7405C6.95949 3.26204 7.57098 3.09779 8.04944 3.37364L16.9994 8.53364C17.4779 8.80949 17.6422 9.42098 17.3663 9.89945C17.0905 10.3779 16.479 10.5422 16.0005 10.2663L7.0505 5.10631C6.57204 4.83046 6.40779 4.21896 6.68364 3.7405Z" fill="#62BB46"/>
<path fill-rule="evenodd" clip-rule="evenodd" d="M2.42295 6.50213C2.6979 6.02316 3.30909 5.85777 3.78806 6.13273L12.0002 10.8469L20.2124 6.13273C20.6913 5.85777 21.3025 6.02316 21.5775 6.50213C21.8524 6.98111 21.687 7.59229 21.2081 7.86725L13.0002 12.579V22C13.0002 22.5523 12.5525 23 12.0002 23C11.4479 23 11.0002 22.5523 11.0002 22V12.579L2.79235 7.86725C2.31338 7.59229 2.14799 6.98111 2.42295 6.50213Z" fill="#62BB46"/>
</svg>
