<svg width="16" height="17" viewBox="0 0 16 17" fill="none" xmlns="http://www.w3.org/2000/svg">
<path d="M10.0002 3.83335C9.6335 3.83335 9.3335 3.53335 9.3335 3.16669V1.83335C9.3335 1.46669 9.6335 1.16669 10.0002 1.16669C10.3668 1.16669 10.6668 1.46669 10.6668 1.83335V3.16669C10.6668 3.53335 10.3668 3.83335 10.0002 3.83335Z" fill="black"/>
<path d="M10.0002 11.8334C9.6335 11.8334 9.3335 11.5334 9.3335 11.1667V9.83335C9.3335 9.46669 9.6335 9.16669 10.0002 9.16669C10.3668 9.16669 10.6668 9.46669 10.6668 9.83335V11.1667C10.6668 11.5334 10.3668 11.8334 10.0002 11.8334Z" fill="black"/>
<path d="M6.6665 7.16665H5.33317C4.9665 7.16665 4.6665 6.86665 4.6665 6.49998C4.6665 6.13331 4.9665 5.83331 5.33317 5.83331H6.6665C7.03317 5.83331 7.33317 6.13331 7.33317 6.49998C7.33317 6.86665 7.03317 7.16665 6.6665 7.16665Z" fill="black"/>
<path d="M14.6665 7.16665H13.3332C12.9665 7.16665 12.6665 6.86665 12.6665 6.49998C12.6665 6.13331 12.9665 5.83331 13.3332 5.83331H14.6665C15.0332 5.83331 15.3332 6.13331 15.3332 6.49998C15.3332 6.86665 15.0332 7.16665 14.6665 7.16665Z" fill="black"/>
<path d="M12.6666 9.83335C12.4932 9.83335 12.3266 9.76668 12.1932 9.64002L11.3932 8.84002C11.1332 8.58002 11.1332 8.16002 11.3932 7.90002C11.6532 7.64002 12.0732 7.64002 12.3332 7.90002L13.1332 8.70002C13.3932 8.96002 13.3932 9.38002 13.1332 9.64002C13.0066 9.76668 12.8399 9.83335 12.6666 9.83335Z" fill="black"/>
<path d="M10.0002 7.16667C9.82683 7.16667 9.6535 7.1 9.52683 6.97333C9.40683 6.84667 9.3335 6.68 9.3335 6.5C9.3335 6.32667 9.40683 6.15333 9.52683 6.03333C9.7735 5.78667 10.2268 5.78 10.4735 6.03333C10.5935 6.15333 10.6668 6.32667 10.6668 6.5C10.6668 6.68 10.5935 6.84667 10.4735 6.97333C10.3468 7.1 10.1735 7.16667 10.0002 7.16667Z" fill="black"/>
<path d="M11.8666 5.30003C11.6932 5.30003 11.5266 5.23336 11.3932 5.10669C11.1332 4.84669 11.1332 4.42669 11.3932 4.16669L12.1932 3.36669C12.4532 3.10669 12.8732 3.10669 13.1332 3.36669C13.3932 3.62669 13.3932 4.04669 13.1332 4.30669L12.3332 5.10669C12.2066 5.23336 12.0399 5.30003 11.8666 5.30003Z" fill="black"/>
<path d="M1.99988 15.1667C1.82654 15.1667 1.65988 15.1 1.52654 14.9733C1.26654 14.7133 1.26654 14.2933 1.52654 14.0333L7.52654 8.03332C7.78654 7.77332 8.20654 7.77332 8.46654 8.03332C8.72654 8.29332 8.72654 8.71332 8.46654 8.97332L2.46654 14.9733C2.33988 15.1 2.17321 15.1667 1.99988 15.1667Z" fill="black"/>
<path d="M8.13337 5.30003C7.96004 5.30003 7.79337 5.23336 7.66004 5.10669L6.86004 4.30669C6.60004 4.04669 6.60004 3.62669 6.86004 3.36669C7.12004 3.10669 7.54004 3.10669 7.80004 3.36669L8.60004 4.16669C8.86004 4.42669 8.86004 4.84669 8.60004 5.10669C8.47337 5.23336 8.30671 5.30003 8.13337 5.30003Z" fill="black"/>
</svg>
