<svg width="179" height="179" viewBox="0 0 179 179" fill="none" xmlns="http://www.w3.org/2000/svg">
<g clip-path="url(#clip0_135_1113)">
<path d="M0.0786133 89.5V178.922H62.0798C96.1718 178.922 124.081 178.817 124.081 178.642C124.081 178.502 99.7696 166.207 70.009 151.327L15.9719 124.256L15.5527 123.382L15.0986 122.509L15.2034 71.2664L15.2733 20.0587L16.0417 19.2203C16.4609 18.7662 24.8442 14.4 34.6596 9.50972C44.4401 4.61948 52.474 0.497708 52.474 0.357987C52.474 0.183335 40.7025 0.0785446 26.2763 0.0785446H0.0786133V89.5Z" fill="#FEFEFE"/>
<path d="M54.9192 0.357987C54.9192 0.497708 79.1957 12.7582 108.886 27.5687L162.819 54.5698L163.378 55.6177L163.902 56.6306L163.832 107.803L163.727 158.941L162.959 159.78C162.539 160.234 154.156 164.6 144.341 169.49C134.56 174.381 126.526 178.502 126.526 178.642C126.526 178.817 138.333 178.922 152.724 178.922H178.922V89.5V0.0785446H116.92C82.8285 0.0785446 54.9192 0.183335 54.9192 0.357987Z" fill="#FEFEFE"/>
<path d="M38.956 13.4569L24.8792 20.5128V20.9319V21.386L74.8294 46.3612C102.285 60.0888 125.024 71.3363 125.304 71.3363C125.583 71.3363 132.185 68.1576 139.974 64.2804L154.121 57.1895V56.7704V56.3163L104.171 31.3412C76.7157 17.6136 53.9411 6.36602 53.6268 6.40095C53.2775 6.40095 46.6756 9.5796 38.956 13.4569Z" fill="#FEFEFE"/>
<path d="M20.6875 73.0828V120.588L70.9871 145.738C98.6518 159.57 121.531 170.888 121.811 170.888H122.335V123.452V76.0519L71.8603 50.7973C44.0908 36.93 21.2115 25.5777 21.0368 25.5777H20.6875V73.0828ZM47.0598 43.1476L66.6208 52.9979L66.7256 95.2985L66.7954 137.599L66.2366 138.088L65.6777 138.542L46.2565 128.832C35.5329 123.487 26.5209 118.876 26.2065 118.562L25.5777 118.038V76.0519V34.1006L25.9969 33.6815C26.2414 33.437 26.6606 33.2623 26.9749 33.2973C27.2544 33.2973 36.3013 37.7334 47.0598 43.1476ZM94.7397 66.97L117.409 78.3224L117.619 79.4401C117.724 80.0689 117.759 99.1059 117.724 121.741L117.619 162.923L116.955 163.378L116.327 163.867L93.9013 152.654C81.6059 146.506 71.2316 141.232 70.9172 140.917L70.2885 140.393V98.4073V56.456L70.7076 56.0369C70.9521 55.7923 71.3364 55.6177 71.5809 55.6177C71.8254 55.6177 82.2346 60.7175 94.7397 66.97Z" fill="#FEFEFE"/>
<path d="M28.3721 77.0299V117.27L46.0119 126.107C55.7225 130.927 63.8263 134.909 64.0009 134.909H64.3502V94.6347V54.395L46.7105 45.5577C36.9998 40.7373 28.896 36.7553 28.7214 36.7553H28.3721V77.0299ZM60.4381 85.7275L60.8572 86.1466V91.1417V96.1018L60.1935 96.486L59.4949 96.8353L58.971 96.2764L58.4121 95.7525V90.9321V86.1466L58.8313 85.7275C59.0758 85.483 59.4251 85.3083 59.6347 85.3083C59.8442 85.3083 60.1935 85.483 60.4381 85.7275Z" fill="#FEFEFE"/>
<path d="M73.083 70.1137V81.1167H73.4323C74.1309 81.1167 95.0891 70.463 95.0891 70.1137C95.0891 69.7644 74.1309 59.1106 73.4323 59.1106H73.083V70.1137Z" fill="#FEFEFE"/>
<path d="M86.4612 77.3791L75.1787 83.0378V83.457V83.9111L94.7397 93.6916C105.498 99.0708 114.44 103.472 114.65 103.472H114.999V91.5958V79.7195L106.965 75.7025C102.564 73.5019 98.6518 71.6855 98.3375 71.7204C97.9882 71.7204 92.6438 74.2703 86.4612 77.3791Z" fill="#FEFEFE"/>
<path d="M73.083 98.4071V110.807H73.607C73.8864 110.807 79.4752 108.118 86.0072 104.869L97.8835 98.9311V98.477V98.0578L85.8326 92.0149C79.1958 88.7314 73.607 86.0069 73.4323 86.0069H73.083V98.4071Z" fill="#FEFEFE"/>
<path d="M88.033 106.476L75.1787 112.903V113.357V113.777L94.565 123.487C105.219 128.797 114.196 133.163 114.475 133.163H114.999V119.889V106.616L108.362 103.297C104.73 101.481 101.551 99.9791 101.307 100.014C101.062 100.014 95.089 102.913 88.033 106.476Z" fill="#FEFEFE"/>
<path d="M73.083 126.701V137.704H73.4323C74.1309 137.704 95.0891 127.05 95.0891 126.701C95.0891 126.352 74.1309 115.698 73.4323 115.698H73.083V126.701Z" fill="#FEFEFE"/>
<path d="M86.6358 134.071L75.1787 139.8V140.254V140.673L94.565 150.383C105.219 155.693 114.196 160.059 114.475 160.059H114.999V148.183V136.307L106.965 132.29C102.564 130.089 98.7566 128.273 98.5121 128.307C98.2676 128.307 92.9233 130.892 86.6358 134.071Z" fill="#FEFEFE"/>
<path d="M142.524 68.9261L127.923 76.2265V123.732V171.237H128.273C128.447 171.237 135.294 167.884 143.467 163.832L158.313 156.391V108.991V61.5558L157.719 61.5907C157.37 61.5907 150.523 64.8742 142.524 68.9261Z" fill="#FEFEFE"/>
<path d="M34.3102 9.12548C24.425 14.0856 16.0068 18.5217 15.6225 18.9409L14.9239 19.7094L14.8541 71.3014L14.7493 122.858L15.2034 123.732L15.6225 124.605L69.7644 151.746L123.906 178.887H125.234L126.526 178.922L144.62 169.875C154.54 164.914 162.993 160.478 163.378 160.059L164.076 159.291L164.181 107.803L164.251 56.2813L163.727 55.2684L163.168 54.2205L109.061 27.1495L54.9191 0.0785446L53.6267 0.113475H52.2993L34.3102 9.12548ZM103.926 31.7254L153.946 56.7704L139.625 63.8961L125.304 71.0568L75.1786 46.0118L25.0537 20.9668L39.2005 13.8411C46.9899 9.96381 53.452 6.75023 53.6267 6.75023C53.7664 6.7153 76.4012 17.9628 103.926 31.7254ZM121.985 123.452C121.985 149.371 121.915 170.538 121.811 170.538C121.706 170.538 99.0011 159.221 71.3363 145.388L21.0367 120.239V73.0828V25.9269L71.511 51.1466L121.985 76.4012V123.452ZM157.963 108.991V156.042L143.118 163.482L128.273 170.888V123.732V76.5758L142.873 69.2754C150.873 65.2235 157.544 61.94 157.719 61.94C157.859 61.9051 157.963 83.0729 157.963 108.991Z" fill="black"/>
<path d="M25.9621 33.1226L25.2285 33.6465V76.017V118.387L25.8573 118.911C26.8004 119.75 64.9792 138.752 65.7127 138.752C66.062 138.752 66.551 138.542 66.7606 138.263L67.1448 137.809L67.075 95.2286L66.9702 52.6486L47.7585 42.9729C37.2096 37.6635 28.1277 33.1575 27.6038 32.9479L26.6956 32.6336L25.9621 33.1226ZM64.0011 94.6348V134.56L46.3613 125.758L28.7215 116.92V77.0299V37.1046L46.3613 45.9071L64.0011 54.7444V94.6348Z" fill="black"/>
<path d="M58.4822 85.3782L58.063 85.7974V90.9322V96.1018L58.6219 96.6258C59.2506 97.2895 59.5999 97.3244 60.543 96.8354L61.2067 96.4511V91.1417V85.7974L60.7875 85.3782C60.543 85.1337 60.054 84.9591 59.6349 84.9591C59.2157 84.9591 58.7267 85.1337 58.4822 85.3782Z" fill="black"/>
<path d="M70.6727 55.4779L69.9392 56.0018V98.3722V140.743L70.568 141.267C70.8823 141.581 81.2566 146.89 93.6219 153.038L116.117 164.286L116.781 164.076C117.165 163.936 117.619 163.447 117.829 162.958L118.143 162.12V120.832C118.143 98.1277 118.038 79.1955 117.933 78.7414L117.689 77.938L95.3335 66.7254C83.0031 60.5777 72.5939 55.408 72.1747 55.2683L71.4063 54.9539L70.6727 55.4779ZM94.6349 70.0787C94.6698 70.1137 89.9193 72.5238 84.051 75.458L73.4322 80.7674V70.1137V59.4599L84.0161 64.7344C89.8145 67.6336 94.6 70.0438 94.6349 70.0787ZM106.616 76.0518L114.65 80.0688V91.5958V103.123L95.0191 93.3074L75.3534 83.4919L86.7057 77.7634C92.9583 74.6546 98.1629 72.0698 98.3375 72.0698C98.4772 72.0348 102.215 73.8512 106.616 76.0518ZM97.4992 98.4421C97.604 98.5469 73.9562 110.458 73.6069 110.458C73.5021 110.458 73.4322 105.044 73.4322 98.4072V86.3562L85.4133 92.3293C91.9802 95.6127 97.4293 98.3722 97.4992 98.4421ZM108.013 103.647L114.65 106.965V119.889C114.65 127.015 114.545 132.813 114.405 132.779C114.231 132.779 105.393 128.412 94.7397 123.068L75.3534 113.357L88.2776 106.86C95.4034 103.297 101.237 100.363 101.307 100.363C101.342 100.328 104.38 101.83 108.013 103.647ZM94.6349 126.666C94.6698 126.701 89.9193 129.111 84.051 132.045L73.4322 137.354V126.701V116.047L84.0161 121.321C89.8145 124.221 94.6 126.631 94.6349 126.666ZM106.616 132.639L114.65 136.656V148.183C114.65 154.54 114.545 159.71 114.405 159.675C114.231 159.675 105.393 155.309 94.7397 149.964L75.3534 140.254L86.8804 134.455C93.2377 131.277 98.4423 128.657 98.5122 128.657C98.5471 128.622 102.215 130.438 106.616 132.639Z" fill="black"/>
<path d="M54.5698 0.253148C54.5698 0.532591 162.225 54.2903 162.4 54.0807C162.574 53.941 55.1986 0.0784972 54.7445 0.0784972C54.6397 0.0784972 54.5698 0.148358 54.5698 0.253148Z" fill="#0C0C0C"/>
<path d="M53.8713 6.54066C53.8713 6.64545 151.082 55.5129 154.226 56.945C154.366 57.0149 154.47 56.945 154.47 56.7704C154.47 56.6307 131.906 45.2085 104.346 31.411C76.7856 17.6485 54.1508 6.36601 54.046 6.36601C53.9412 6.36601 53.8713 6.43587 53.8713 6.54066Z" fill="#0C0C0C"/>
<path d="M128.168 76.471C127.819 76.7854 127.854 171.237 128.203 171.237C128.343 171.237 128.447 149.859 128.447 123.732C128.447 97.6038 128.447 76.2265 128.413 76.2265C128.413 76.2265 128.273 76.3313 128.168 76.471Z" fill="#0C0C0C"/>
<path d="M58.412 85.4829C57.7134 86.3213 58.2024 86.461 58.9359 85.6576C59.2853 85.2734 59.39 84.959 59.2154 84.959C59.0058 84.959 58.6565 85.2035 58.412 85.4829Z" fill="#0C0C0C"/>
<path d="M73.4321 86.1816C73.4321 86.4611 97.9532 98.6517 98.1278 98.4422C98.3025 98.3024 74.0609 86.007 73.6068 86.007C73.502 86.007 73.4321 86.0768 73.4321 86.1816Z" fill="#0C0C0C"/>
<path d="M60.9272 91.0718L60.8574 95.997L60.4382 96.4162L60.019 96.8353H60.4382C60.6827 96.8353 60.9622 96.6257 61.067 96.3812C61.1368 96.1367 61.1717 93.7265 61.1019 91.0718L60.9971 86.1816L60.9272 91.0718Z" fill="#0C0C0C"/>
<path d="M101.376 100.154C101.376 100.433 114.72 107.035 114.894 106.825C115.069 106.686 102.005 99.9791 101.551 99.9791C101.446 99.9791 101.376 100.049 101.376 100.154Z" fill="#0C0C0C"/>
<path d="M20.6875 120.413C20.6875 120.728 122.055 171.272 122.265 171.097C122.369 170.992 122.369 170.853 122.3 170.783C121.636 170.398 21.0019 120.239 20.8622 120.239C20.7574 120.239 20.6875 120.308 20.6875 120.413Z" fill="#0C0C0C"/>
<path d="M15.4827 124.081L15.6574 124.605L69.9041 151.781C99.7345 166.731 124.221 178.887 124.325 178.782C124.43 178.677 100.258 166.486 70.6027 151.676C40.9469 136.831 16.356 124.465 16.0067 124.116L15.343 123.557L15.4827 124.081Z" fill="#0C0C0C"/>
<path d="M84.121 132.01C78.2177 134.979 73.4323 137.459 73.5371 137.564C73.6768 137.704 94.5651 127.469 95.0541 127.015C95.124 126.945 95.124 126.805 95.0541 126.736C94.9843 126.666 90.0591 129.041 84.121 132.01Z" fill="#0C0C0C"/>
<path d="M117.27 163.063L116.676 163.971L117.13 163.832C117.514 163.692 118.318 162.155 118.003 162.155C117.933 162.155 117.619 162.574 117.27 163.063Z" fill="#0C0C0C"/>
<path d="M34.4849 9.05555C24.7045 13.9458 16.6006 18.0326 16.5308 18.1025C15.6575 18.9408 19.3601 17.1594 35.1137 9.30006C45.2435 4.23517 53.2774 0.0784693 52.9281 0.1134C52.5788 0.1134 44.3003 4.13038 34.4849 9.05555Z" fill="#868686"/>
<path d="M25.6127 33.402L25.2285 33.8561L25.3333 76.0868L25.4032 118.318L25.508 76.017L25.5778 33.7513L25.997 33.3322C26.2415 33.0877 26.3114 32.913 26.2066 32.913C26.1018 32.913 25.8223 33.1226 25.6127 33.402Z" fill="#868686"/>
<path d="M70.0091 98.4422L69.9392 140.743L70.7426 141.406L71.5111 142.07L70.9173 141.337L70.2885 140.638L70.1837 98.3723L70.1139 56.1416L70.0091 98.4422Z" fill="#868686"/>
<path d="M114.58 91.4211L114.685 103.123L95.0193 93.2724C84.1909 87.8233 75.2488 83.3522 75.109 83.2824C74.9344 83.2125 74.8296 83.2824 74.8296 83.457C74.8296 83.7364 114.056 103.472 114.65 103.472H114.999V91.5958C114.999 85.0638 114.895 79.7195 114.755 79.7195C114.58 79.7195 114.51 84.9939 114.58 91.4211Z" fill="#868686"/>
<path d="M114.545 119.924C114.615 127.26 114.72 133.337 114.825 133.442C114.929 133.547 114.999 127.539 114.999 120.134C114.999 112.694 114.894 106.616 114.755 106.616C114.58 106.616 114.51 112.624 114.545 119.924Z" fill="#868686"/>
<path d="M86.5311 134.106C80.2087 137.285 74.9343 139.939 74.8644 140.009C74.7945 140.079 74.7945 140.219 74.8644 140.289C74.9692 140.428 97.7787 129.146 98.1978 128.762C98.2677 128.692 98.2677 128.552 98.1978 128.482C98.128 128.412 92.8884 130.927 86.5311 134.106Z" fill="#868686"/>
<path d="M114.475 148.183C114.475 154.715 114.58 160.059 114.755 160.059C114.895 160.059 114.999 154.715 114.999 148.183C114.999 141.651 114.895 136.307 114.755 136.307C114.58 136.307 114.475 141.651 114.475 148.183Z" fill="#868686"/>
<path d="M144.446 169.455C134.595 174.381 126.526 178.502 126.526 178.642C126.526 178.887 161.981 161.352 162.47 160.897C163.343 160.059 159.71 161.806 144.446 169.455Z" fill="#868686"/>
<path d="M28.4418 76.995C28.5117 99.1408 28.5816 110.738 28.6165 102.774C28.861 64.5598 28.861 36.7553 28.6514 36.7553C28.4768 36.7553 28.4069 54.8841 28.4418 76.995Z" fill="#F2F2F2"/>
<path d="M73.083 70.1137C73.083 76.1566 73.1878 81.1167 73.3624 81.1167C73.5022 81.1167 73.607 76.1566 73.607 70.1137C73.607 64.0707 73.5022 59.1106 73.3624 59.1106C73.1878 59.1106 73.083 64.0707 73.083 70.1137Z" fill="#F2F2F2"/>
<path d="M117.794 120.693L117.968 162.679L118.073 120.972C118.108 98.023 118.038 79.1258 117.899 78.986C117.724 78.8114 117.689 97.6039 117.794 120.693Z" fill="#F2F2F2"/>
<path d="M73.083 98.4071C73.083 105.219 73.1878 110.807 73.3624 110.807C73.5022 110.807 73.607 105.219 73.607 98.4071C73.607 91.5957 73.5022 86.0069 73.3624 86.0069C73.1878 86.0069 73.083 91.5957 73.083 98.4071Z" fill="#F2F2F2"/>
<path d="M73.083 126.701C73.083 132.744 73.1878 137.704 73.3624 137.704C73.5022 137.704 73.607 132.744 73.607 126.701C73.607 120.658 73.5022 115.698 73.3624 115.698C73.1878 115.698 73.083 120.658 73.083 126.701Z" fill="#F2F2F2"/>
<path d="M15.0986 123.627C15.0986 124.046 16.426 125.304 16.6356 125.094C16.7404 125.024 16.426 124.57 15.937 124.116C15.4829 123.662 15.0986 123.452 15.0986 123.627Z" fill="#F2F2F2"/>
<path d="M14.9241 71.6856C14.9241 99.8394 14.959 111.331 14.9939 97.2895C15.0638 83.2126 15.0638 60.1586 14.9939 46.1166C14.959 32.0397 14.9241 43.5318 14.9241 71.6856Z" fill="#A6A6A6"/>
<path d="M164.076 107.314C164.076 135.468 164.111 146.96 164.146 132.918C164.216 118.841 164.216 95.7874 164.146 81.7454C164.111 67.6685 164.076 79.1606 164.076 107.314Z" fill="#A6A6A6"/>
<path d="M86.4614 77.5538C80.0691 80.7674 74.8296 83.457 74.8296 83.5618C74.8296 83.6666 80.1041 81.1167 86.5312 77.9031C92.9584 74.6546 98.2329 71.93 98.2329 71.8602C98.2329 71.7554 98.1979 71.6855 98.163 71.7205C98.0931 71.7205 92.8187 74.3402 86.4614 77.5538Z" fill="#A6A6A6"/>
<path d="M85.4134 104.52C78.6719 107.873 73.118 110.738 73.118 110.912C73.083 111.122 97.3945 99.1407 97.8486 98.7215C98.5472 98.0579 96.0671 99.2455 85.4134 104.52Z" fill="#A6A6A6"/>
<path d="M28.7566 117.235C29.1059 117.549 64.0012 134.909 64.0012 134.735C64.0012 134.56 29.2107 117.095 28.8264 117.095C28.7216 117.095 28.6867 117.165 28.7566 117.235Z" fill="#A6A6A6"/>
<path d="M74.8296 140.149C74.8296 140.393 114.336 160.129 114.51 159.989C114.545 159.919 105.673 155.378 94.7049 149.929C83.7717 144.445 74.8296 140.044 74.8296 140.149Z" fill="#A6A6A6"/>
<path d="M20.6875 73.0827C20.6875 99.2106 20.7923 120.588 20.9669 120.588C21.1067 120.588 21.2115 99.2106 21.2115 73.0827C21.2115 46.9549 21.1067 25.5776 20.9669 25.5776C20.7923 25.5776 20.6875 46.9549 20.6875 73.0827Z" fill="#474747"/>
<path d="M157.789 109.026C157.789 135.154 157.894 156.426 158.069 156.322C158.383 156.112 158.383 61.5558 158.069 61.5558C157.894 61.5558 157.789 82.9332 157.789 109.026Z" fill="#474747"/>
<path d="M77.8335 111.716C76.1569 112.589 74.8295 113.357 74.8994 113.427C74.9692 113.497 76.5062 112.798 78.3225 111.855C80.1389 110.912 81.5012 110.144 81.2916 110.144C81.117 110.144 79.5451 110.842 77.8335 111.716Z" fill="#474747"/>
<path d="M103.822 31.6555C131.591 45.5578 154.366 56.8752 154.435 56.8403C154.575 56.6656 53.976 6.36602 53.6267 6.40095C53.4521 6.40095 76.052 17.7882 103.822 31.6555Z" fill="#777777"/>
<path d="M63.9311 94.7395C63.8612 116.85 63.9311 134.909 64.1057 134.909C64.2454 134.909 64.3502 116.815 64.3502 94.7395C64.3502 72.6286 64.2804 54.5697 64.1756 54.5697C64.0708 54.5697 63.966 72.6636 63.9311 94.7395Z" fill="#777777"/>
<path d="M21.0369 120.413C21.0369 120.658 121.671 170.957 121.846 170.818C121.881 170.748 99.2457 159.326 71.4762 145.458C43.7415 131.591 21.0369 120.309 21.0369 120.413Z" fill="#777777"/>
<path d="M38.921 13.6314C30.9918 17.6135 24.5996 21.0017 24.7393 21.1414C25.0886 21.4907 25.6475 21.4558 25.4379 21.1065C25.3681 20.9668 31.5507 17.6833 39.2354 13.8759C46.955 10.0336 53.3123 6.78509 53.3821 6.61044C53.4869 6.47072 53.5218 6.36593 53.452 6.40086C53.3821 6.40086 46.8502 9.64937 38.921 13.6314Z" fill="#DADADA"/>
<path d="M15.1335 19.5347C15.0986 19.7442 14.9938 20.2333 14.889 20.5826L14.6794 21.2113L15.0986 20.5826C15.3082 20.2333 15.413 19.7792 15.3082 19.5347L15.1685 19.1155L15.1335 19.5347Z" fill="#DADADA"/>
<path d="M121.915 123.767C121.846 149.72 121.915 171.027 122.09 171.132C122.23 171.202 122.335 149.964 122.335 123.941C122.335 97.8833 122.265 76.5758 122.16 76.5758C122.055 76.5758 121.95 97.8134 121.915 123.767Z" fill="#DADADA"/>
<path d="M75.2834 113.183L74.8643 113.462L94.9492 123.487C106.022 129.006 114.964 133.407 114.894 133.268C114.79 133.128 105.917 128.587 95.1238 123.208C84.3653 117.863 75.6677 113.322 75.7375 113.183C75.9471 112.833 75.8423 112.833 75.2834 113.183Z" fill="#DADADA"/>
<path d="M142.874 163.587C134.84 167.604 128.273 170.957 128.273 171.062C128.273 171.237 157.579 156.671 157.929 156.357C158.557 155.763 155.553 157.195 142.874 163.587Z" fill="#DADADA"/>
<path d="M55.3034 0.567515C55.6527 0.881888 162.504 54.1855 162.504 54.0457C162.504 53.8711 55.7575 0.427794 55.3733 0.427794C55.2685 0.427794 55.2336 0.497655 55.3034 0.567515Z" fill="#E7E7E7"/>
<path d="M73.4321 86.1817C73.4321 86.2865 78.8114 89.046 85.4132 92.3294C91.9801 95.6129 97.4641 98.4771 97.5689 98.6518L97.8135 99.0011L97.9881 98.6867C98.0929 98.5121 92.6088 95.5779 85.7974 92.1897C78.986 88.8015 73.4321 86.0769 73.4321 86.1817Z" fill="#E7E7E7"/>
<path d="M101.376 100.154C101.376 100.398 114.685 107.035 114.86 106.895C114.894 106.825 111.925 105.254 108.188 103.367C104.45 101.516 101.376 100.049 101.376 100.154Z" fill="#E7E7E7"/>
<path d="M16.4958 124.954C16.4958 125.199 123.417 178.642 123.592 178.502C123.627 178.432 99.56 166.312 70.0789 151.571C40.6327 136.83 16.4958 124.849 16.4958 124.954Z" fill="#E7E7E7"/>
<path d="M83.8413 132.15C78.1128 135.014 73.4321 137.424 73.4321 137.529C73.4321 137.704 94.3554 127.329 94.7047 127.015C95.3334 126.421 92.8534 127.609 83.8413 132.15Z" fill="#E7E7E7"/>
<path d="M24.9145 21.1764C25.2638 21.4907 125.129 71.3013 125.129 71.1616C125.129 70.9869 25.3686 21.0366 24.9844 21.0366C24.8796 21.0366 24.8447 21.1065 24.9145 21.1764Z" fill="#D0D0D0"/>
<path d="M83.8416 75.5628C78.113 78.4271 73.4324 80.8372 73.4324 80.942C73.4324 81.1167 94.3556 70.7424 94.7049 70.428C95.3336 69.8342 92.8536 71.0218 83.8416 75.5628Z" fill="#D0D0D0"/>
<path d="M91.1771 105.079C85.6232 107.838 81.1172 110.179 81.1172 110.284C81.1172 110.388 85.6931 108.188 91.247 105.393C96.8358 102.599 101.377 100.259 101.377 100.154C101.377 100.049 101.342 99.9791 101.307 100.014C101.237 100.014 96.6961 102.284 91.1771 105.079Z" fill="#D0D0D0"/>
<path d="M25.9272 119.016C25.9272 119.121 34.7297 123.592 45.4882 128.971C56.2467 134.35 65.0491 138.682 65.0491 138.577C65.0491 138.472 56.2467 134.001 45.4882 128.622C34.7297 123.243 25.9272 118.911 25.9272 119.016Z" fill="#D0D0D0"/>
<path d="M92.9934 152.724C105.184 158.837 115.349 163.867 115.523 163.867C115.733 163.867 105.883 158.837 93.692 152.724C81.5013 146.611 71.3715 141.581 71.162 141.581C70.9873 141.581 80.8027 146.611 92.9934 152.724Z" fill="#D0D0D0"/>
<path d="M83.5619 121.112C89.4302 124.081 94.3903 126.491 94.5649 126.491C94.7745 126.491 90.1288 124.081 84.2605 121.112C78.3922 118.143 73.4671 115.733 73.2575 115.733C73.0828 115.733 77.6936 118.143 83.5619 121.112Z" fill="#262626"/>
<path d="M27.6736 33.0876C27.6736 33.1924 36.3363 37.5936 46.8852 42.8681C57.4691 48.1426 66.0969 52.404 66.0969 52.2993C66.0969 52.1945 57.4691 47.7933 46.8852 42.5188C36.3363 37.2443 27.6736 32.9828 27.6736 33.0876Z" fill="#B1B1B1"/>
<path d="M72.3843 55.4429C72.3843 55.5477 82.4442 60.6475 94.7396 66.7953C107.035 72.943 117.095 77.9031 117.095 77.7983C117.095 77.6935 107.035 72.5937 94.7396 66.446C82.4442 60.2982 72.3843 55.3381 72.3843 55.4429Z" fill="#B1B1B1"/>
<path d="M142.874 68.926C134.84 72.9429 128.273 76.2962 128.273 76.401C128.273 76.5757 157.579 62.0098 157.929 61.6954C158.557 61.1016 155.553 62.5337 142.874 68.926Z" fill="#B1B1B1"/>
<path d="M58.2026 90.8972C58.2026 93.482 58.2376 94.5649 58.3074 93.2375C58.3773 91.9451 58.3773 89.8493 58.3074 88.5219C58.2376 87.2295 58.2026 88.3124 58.2026 90.8972Z" fill="#5F5F5F"/>
<path d="M70.987 50.902C98.7566 64.8043 121.636 76.1915 121.811 76.1915C122.02 76.1915 99.4552 64.8043 71.6856 50.902C43.9161 36.9998 21.0717 25.6125 20.8621 25.6125C20.6874 25.6125 43.2175 36.9998 70.987 50.902Z" fill="#1C1C1C"/>
<path d="M106.267 132.464C110.773 134.734 114.65 136.621 114.825 136.621C115.034 136.621 111.471 134.734 106.965 132.464C102.459 130.194 98.6169 128.307 98.4073 128.307C98.2327 128.307 101.761 130.194 106.267 132.464Z" fill="#1C1C1C"/>
<path d="M28.7214 36.9299C28.7214 37.0347 36.7554 41.1215 46.5359 46.0117C56.3513 50.902 64.3503 54.8491 64.3503 54.7443C64.3503 54.6395 56.3513 50.5527 46.5359 45.6624C36.7554 40.7722 28.7214 36.8251 28.7214 36.9299Z" fill="#3C3C3C"/>
<path d="M139.73 63.8612C131.87 67.7734 125.478 71.0568 125.478 71.1616C125.478 71.2664 131.94 68.1227 139.799 64.1756C147.694 60.2285 154.121 56.945 154.121 56.8402C154.121 56.7354 154.086 56.6656 154.051 56.7005C153.981 56.7005 147.554 59.9141 139.73 63.8612Z" fill="#3C3C3C"/>
<path d="M73.4321 59.2853C73.4321 59.3901 78.3224 61.9051 84.2605 64.8742C90.2336 67.8433 95.0889 70.2185 95.0889 70.1137C95.0889 70.0089 90.2336 67.494 84.2605 64.5249C78.3224 61.5558 73.4321 59.1806 73.4321 59.2853Z" fill="#3C3C3C"/>
<path d="M98.2674 71.8252C98.6167 72.1396 114.65 80.0688 114.65 79.8941C114.65 79.7893 111.052 77.9031 106.616 75.7025C99.5249 72.1745 97.7086 71.3013 98.2674 71.8252Z" fill="#3C3C3C"/>
</g>
<defs>
<clipPath id="clip0_135_1113">
<rect width="178.843" height="178.843" fill="white" transform="translate(0.0786133 0.0786133)"/>
</clipPath>
</defs>
</svg>
